 <svg  version="1.0" xmlns="http://www.w3.org/2000/svg"  width="300.000000pt" height="242.000000pt" viewBox="0 0 300.000000 242.000000"  preserveAspectRatio="xMidYMid meet">  <g transform="translate(0.000000,242.000000) scale(0.100000,-0.100000)" fill="#2e1f7a" stroke="none"> <path d="M1450 1898 c-44 -12 -140 -88 -140 -111 0 -10 42 -53 57 -58 6 -2 12 -22 14 -44 4 -56 8 -60 35 -34 26 24 34 49 9 29 -25 -21 -30 -2 -7 23 12 13 22 29 22 36 0 7 5 9 12 5 8 -5 9 -2 5 9 -3 10 -2 17 3 17 5 0 5 13 -1 30 -9 25 -15 29 -35 24 -14 -4 -24 -2 -24 4 0 19 44 42 80 42 36 0 100 -32 100 -50 0 -6 11 -28 24 -49 14 -21 22 -41 19 -45 -3 -3 -1 -12 6 -20 9 -11 9 -15 0 -18 -9 -3 -8 -10 2 -26 23 -36 32 -25 26 31 -10 92 -62 176 -126 203 -38 16 -34 16 -81 2z m-30 -93 c43 -22 29 -40 -30 -40 -40 0 -50 3 -50 17 0 16 24 37 43 38 4 0 21 -7 37 -15z"/> <path d="M717 1860 c-19 -16 -42 -30 -51 -30 -21 0 -47 -41 -46 -76 0 -16 -3 -83 -6 -149 -3 -66 -5 -129 -5 -140 0 -11 1 -45 2 -75 0 -30 5 -73 12 -95 6 -22 9 -61 8 -86 -2 -30 4 -59 15 -80 10 -19 21 -59 25 -90 5 -40 16 -71 40 -105 18 -27 34 -64 36 -82 3 -48 83 -153 131 -172 18 -8 29 -37 20 -54 -4 -7 64 -76 74 -76 5 0 18 -9 30 -20 60 -56 207 -81 263 -45 24 16 47 20 123 20 81 0 96 3 108 19 12 17 12 23 0 40 -13 21 -29 30 -98 60 -29 12 -44 28 -67 73 -16 32 -48 79 -71 106 -23 26 -38 47 -34 47 4 0 3 5 -4 12 -20 20 -13 55 15 78 l27 21 25 -25 c14 -14 21 -29 17 -33 -4 -4 -15 2 -24 15 -15 20 -20 21 -36 9 -20 -14 -19 -48 2 -55 7 -2 12 5 12 18 0 20 2 21 16 9 10 -8 12 -15 5 -17 -17 -6 -13 -19 16 -49 l26 -28 -7 25 c-13 42 -12 63 3 68 9 3 11 -1 7 -16 -4 -11 -2 -23 4 -27 15 -9 12 -43 -4 -52 -11 -6 -11 -10 -2 -19 10 -9 18 -1 36 32 12 24 27 44 31 44 14 0 11 -12 -15 -57 -23 -40 -24 -53 -4 -53 5 0 6 4 3 10 -6 9 8 14 28 11 4 0 7 4 7 9 0 6 -4 10 -10 10 -5 0 -10 5 -10 10 0 6 7 10 15 10 8 0 15 7 15 15 0 17 16 20 25 5 4 -6 10 -8 14 -6 4 3 13 1 21 -4 12 -7 12 -13 4 -28 -49 -79 -6 -128 81 -92 11 5 49 19 83 32 79 29 102 60 77 108 -22 42 -19 45 16 16 36 -30 64 -33 93 -8 11 9 4 -3 -17 -28 -21 -25 -50 -67 -65 -95 -33 -60 -86 -115 -113 -115 -28 0 -82 -51 -74 -72 10 -25 54 -51 68 -40 22 17 140 8 171 -13 45 -30 128 -25 204 13 34 17 69 37 78 44 45 35 84 84 84 105 0 13 9 27 23 34 12 7 30 22 40 33 10 12 29 33 42 47 32 37 45 63 45 93 0 14 17 49 37 78 31 42 38 61 39 102 1 31 10 68 24 94 17 32 21 53 17 84 -3 22 -1 52 5 67 13 32 20 339 8 346 -5 3 -6 15 -1 26 7 19 -2 91 -17 148 -5 17 -17 27 -40 33 -17 5 -32 13 -32 18 0 5 -11 17 -24 25 -28 19 -61 8 -70 -23 -4 -11 -17 -25 -30 -32 -30 -16 -37 -36 -43 -130 -2 -41 -6 -100 -9 -130 -3 -30 -6 -71 -8 -90 -1 -19 -6 -51 -11 -70 -5 -19 -7 -47 -6 -61 1 -15 -7 -42 -18 -60 -12 -19 -21 -49 -21 -67 0 -18 -11 -49 -25 -70 -13 -20 -27 -57 -31 -81 -5 -29 -13 -45 -24 -48 -24 -6 -63 -61 -54 -76 4 -6 4 -9 -1 -5 -5 5 -13 -2 -19 -13 -6 -12 -13 -21 -16 -19 -3 1 -22 -5 -42 -13 -21 -9 -38 -14 -38 -12 0 3 18 24 40 47 22 24 40 49 40 55 0 7 5 13 10 13 6 0 10 5 10 12 0 7 -7 5 -18 -5 -16 -14 -20 -13 -54 12 -43 32 -40 51 2 21 35 -25 50 -25 50 0 0 21 -27 40 -47 33 -7 -3 -13 0 -13 6 0 17 51 13 72 -6 28 -25 22 4 -7 33 -18 18 -24 32 -20 45 5 13 11 17 18 11 7 -5 20 -12 29 -15 13 -5 15 -2 10 11 -6 16 -4 16 18 1 23 -15 26 -15 44 2 10 10 15 22 11 28 -3 6 -1 11 4 11 6 0 11 10 11 21 0 18 -3 19 -14 9 -17 -13 -58 -10 -63 6 -2 7 8 9 27 6 23 -3 30 0 30 12 0 9 6 16 14 16 23 0 35 24 42 86 4 32 12 62 18 66 8 5 7 8 -1 8 -9 0 -10 7 -3 25 11 29 8 30 -24 10 -23 -16 -56 -11 -56 7 0 6 7 8 15 4 25 -9 43 3 37 26 -3 15 -1 19 6 14 15 -9 24 14 27 67 1 23 5 54 9 69 6 19 4 32 -6 41 -17 18 -58 31 -58 20 0 -5 -14 -14 -32 -21 -37 -14 -43 -9 -52 51 -10 59 -23 77 -56 77 -16 0 -32 -5 -35 -10 -4 -6 -28 -20 -53 -32 -26 -12 -53 -28 -60 -35 -7 -7 -20 -13 -27 -13 -20 0 -75 -49 -75 -68 0 -8 3 -12 8 -8 4 4 7 12 7 18 0 10 231 137 251 138 33 1 51 -332 25 -455 -17 -81 -57 -179 -98 -243 -39 -62 -121 -152 -137 -152 -6 1 5 15 25 33 20 18 53 54 74 81 37 50 89 145 83 151 -2 2 -19 -26 -38 -63 -19 -37 -66 -100 -105 -141 -38 -41 -63 -71 -55 -66 10 6 9 2 -3 -12 -10 -12 -58 -42 -107 -67 -89 -45 -90 -45 -126 -30 -64 27 -144 76 -139 84 3 5 0 12 -6 16 -8 4 -9 3 -5 -4 12 -19 -3 -14 -41 16 -101 76 -195 239 -229 394 -19 87 -21 267 -5 364 15 86 24 103 48 88 10 -6 18 -16 18 -22 0 -11 145 -106 151 -99 2 2 -31 24 -74 50 -42 26 -72 47 -67 47 6 0 43 -20 84 -45 50 -30 76 -52 78 -66 4 -27 -3 -24 -107 41 -45 28 -84 50 -86 47 -2 -2 -9 -52 -16 -112 -20 -189 21 -392 106 -520 65 -99 173 -189 280 -235 44 -18 44 -18 95 5 247 115 381 342 381 645 0 79 -14 207 -23 216 -5 6 -215 -105 -223 -118 -9 -14 27 -2 110 38 78 38 91 41 100 18 10 -26 7 -261 -4 -289 -15 -40 -36 -26 -32 21 2 21 7 45 11 51 10 19 0 94 -12 90 -21 -7 -32 -36 -21 -54 9 -14 8 -21 -5 -30 -13 -10 -14 -15 -3 -33 10 -17 10 -21 -3 -26 -8 -4 -15 -14 -15 -24 0 -10 -10 -20 -21 -23 -15 -4 -20 -11 -16 -22 5 -12 1 -14 -18 -9 -17 4 -25 2 -25 -7 0 -10 -3 -10 -12 -1 -7 7 -16 12 -20 12 -4 0 1 -9 12 -20 11 -11 22 -32 25 -47 13 -63 21 -78 40 -78 13 0 21 8 23 23 2 12 -2 22 -8 22 -7 0 -10 -8 -7 -20 6 -24 -8 -27 -17 -4 -9 23 3 54 20 54 8 0 21 -14 28 -30 12 -30 13 -30 30 -11 14 16 16 30 11 78 -6 54 -5 57 9 39 9 -11 16 -37 16 -58 0 -33 -7 -46 -45 -84 -49 -50 -69 -52 -104 -8 -22 28 -35 17 -25 -22 5 -19 4 -25 -5 -20 -6 4 -11 3 -11 -1 0 -5 -9 -9 -20 -10 -11 -1 -20 4 -20 13 0 8 9 23 20 34 29 29 26 57 -7 63 -16 3 -34 1 -40 -5 -10 -8 -13 -6 -13 6 0 26 4 31 23 29 17 -3 17 13 1 65 -6 21 -33 14 -27 -8 4 -15 0 -20 -17 -20 -30 0 -23 40 10 57 21 11 19 16 -6 12 -10 -1 -23 24 -18 33 10 16 43 8 54 -13 11 -20 12 -20 31 -3 25 23 24 36 -3 32 -18 -2 -22 3 -26 31 -3 30 -1 33 11 23 10 -9 22 -10 41 -2 20 7 26 6 26 -4 0 -7 3 -27 6 -44 5 -24 1 -36 -19 -56 -22 -22 -23 -26 -8 -26 9 0 27 10 40 21 22 21 24 40 7 81 -6 12 1 22 21 34 37 23 86 75 78 82 -3 4 -14 1 -23 -6 -9 -7 -24 -15 -32 -19 -8 -4 -18 -11 -22 -16 -3 -6 -32 -14 -63 -18 -46 -6 -64 -14 -86 -38 -34 -38 -45 -39 -53 -5 -9 33 -47 85 -57 78 -5 -3 -5 5 0 18 6 16 22 27 55 36 25 7 46 17 46 21 0 4 -12 18 -27 32 -15 13 -24 17 -21 9 4 -8 9 -24 14 -35 6 -18 5 -18 -19 4 l-25 23 -16 -31 c-20 -39 -30 -39 -53 -1 -21 35 -24 36 -48 10 -10 -11 -25 -20 -33 -20 -27 0 -7 -9 34 -16 21 -3 41 -8 43 -10 6 -6 -24 -95 -36 -106 -16 -13 -75 6 -98 32 -28 31 -78 26 -108 -10 -14 -16 -30 -30 -35 -30 -9 0 -52 -46 -51 -55 2 -15 -9 -29 -17 -22 -11 10 -12 231 -1 269 l7 27 69 -40 c37 -21 75 -39 83 -39 18 0 38 20 38 37 0 17 -50 73 -64 73 -6 0 -31 13 -55 29 -25 17 -48 28 -53 25 -5 -3 -7 0 -6 7 2 6 -10 16 -25 21 -35 12 -50 0 -70 -56 -11 -33 -18 -39 -46 -42 -74 -9 -119 -77 -85 -130 11 -15 21 -21 28 -16 23 18 46 22 46 7 0 -7 -8 -16 -17 -18 -15 -4 -15 -6 4 -12 13 -4 20 -12 17 -17 -4 -5 -13 -3 -22 5 -10 8 -26 17 -37 19 -11 2 -24 13 -31 25 -8 18 -13 20 -23 10 -10 -9 -11 -8 -6 6 4 10 2 17 -4 17 -7 0 -12 16 -11 38 0 99 -6 156 -19 160 -14 5 -33 23 -63 60 -23 29 -31 28 -71 -8z m57 -6 c11 -28 6 -71 -9 -84 -9 -7 -15 -28 -14 -49 1 -37 3 -35 13 10 5 25 69 70 81 57 12 -12 -22 -68 -55 -90 l-35 -24 -2 -102 c-2 -72 0 -101 8 -96 6 3 8 17 5 30 -8 32 15 75 53 97 l31 18 0 -26 c0 -35 -16 -64 -56 -102 -29 -27 -34 -39 -34 -75 0 -24 5 -50 10 -58 6 -10 9 1 7 38 -2 49 1 56 31 83 41 37 52 37 52 0 0 -42 -13 -71 -49 -108 -25 -27 -31 -41 -30 -75 1 -24 5 -54 10 -68 6 -17 7 -7 3 32 -5 54 -4 58 32 97 20 23 41 41 46 41 6 0 9 -23 6 -59 -3 -49 -10 -65 -36 -95 -22 -25 -32 -47 -32 -70 0 -38 31 -137 38 -118 2 7 -3 31 -10 55 -17 49 -10 83 24 126 38 48 48 40 48 -40 0 -58 -4 -76 -25 -107 -14 -20 -25 -47 -25 -60 0 -23 36 -101 64 -137 24 -32 19 -6 -10 42 -34 59 -34 112 1 164 15 23 30 37 35 33 10 -13 30 -97 30 -132 0 -16 -7 -46 -16 -67 -9 -22 -13 -49 -9 -66 7 -30 123 -155 134 -143 3 3 -12 21 -33 40 -55 47 -76 82 -76 125 0 38 25 109 38 109 4 0 23 -30 42 -66 25 -50 35 -83 39 -139 8 -87 22 -107 112 -155 59 -31 119 -53 119 -44 0 3 -33 20 -72 38 -77 35 -95 51 -122 103 -17 34 -22 128 -7 137 16 10 157 -148 173 -194 18 -55 69 -98 128 -108 32 -5 46 -13 48 -26 4 -17 0 -18 -39 -10 -73 14 -121 10 -178 -15 -63 -27 -113 -24 -189 9 -54 24 -152 96 -152 112 0 7 30 9 93 6 84 -4 100 -8 178 -46 48 -23 95 -42 105 -42 11 0 -35 27 -101 60 -115 57 -123 59 -190 57 -64 -2 -74 1 -118 31 -44 31 -134 138 -124 148 6 7 85 -12 130 -31 21 -9 68 -43 103 -76 36 -34 68 -59 70 -56 6 6 -132 139 -159 153 -12 6 -39 14 -60 18 -20 4 -54 21 -73 38 -34 30 -97 141 -87 152 7 7 70 -20 111 -47 18 -12 44 -42 57 -67 12 -25 32 -54 44 -64 14 -13 5 10 -26 64 -42 75 -51 85 -99 106 -28 12 -61 34 -72 49 -23 29 -57 123 -49 132 4 3 28 -8 54 -24 46 -28 54 -39 97 -133 l17 -35 -6 35 c-10 64 -47 123 -90 145 -44 22 -85 88 -85 137 l0 27 35 -20 c48 -28 71 -61 79 -108 3 -22 10 -43 16 -46 6 -4 7 6 3 27 -14 77 -28 102 -71 131 -44 30 -54 46 -65 105 -5 24 -3 32 8 32 23 0 85 -65 86 -91 0 -13 5 -33 10 -44 6 -14 7 -5 4 30 -2 28 -5 123 -5 212 -1 91 -5 165 -10 168 -15 9 -12 48 6 73 18 26 30 28 38 6z m1560 -19 c12 -25 14 -40 7 -53 -5 -10 -9 -83 -8 -163 0 -79 3 -127 5 -107 2 29 12 45 45 73 39 34 42 35 45 16 6 -41 -18 -88 -58 -115 -22 -14 -42 -36 -44 -49 -12 -58 -14 -97 -5 -92 12 8 11 3 -5 -31 -16 -33 -32 -128 -18 -104 5 8 12 31 16 51 7 40 35 73 86 103 l33 19 -8 -39 c-12 -67 -32 -102 -67 -120 -52 -26 -77 -54 -92 -103 -8 -25 -18 -55 -22 -65 -5 -13 -4 -17 4 -13 6 4 18 29 27 56 8 26 28 59 43 73 28 27 91 62 98 56 2 -2 -4 -28 -14 -58 -20 -62 -67 -115 -111 -125 -17 -4 -40 -19 -52 -33 -28 -37 -90 -144 -86 -149 6 -6 30 26 57 76 26 48 82 92 137 109 41 12 41 7 4 -67 -36 -69 -78 -108 -129 -116 -65 -12 -72 -15 -155 -97 -52 -51 -71 -75 -52 -65 17 9 50 36 74 61 44 46 106 76 185 90 l39 7 -21 -32 c-29 -46 -101 -118 -137 -137 -20 -10 -58 -16 -110 -17 -71 0 -86 -4 -130 -31 -49 -29 -97 -54 -146 -73 -23 -9 -23 -10 -2 -10 11 -1 61 18 109 41 80 38 96 43 181 46 62 3 93 1 93 -6 0 -18 -126 -102 -184 -123 -71 -24 -112 -24 -160 2 -42 22 -107 28 -173 15 -36 -7 -43 -6 -43 8 0 9 11 18 28 22 84 18 135 57 147 116 5 19 37 62 88 115 l81 85 9 -29 c4 -15 5 -46 2 -68 -10 -68 -38 -99 -133 -150 -101 -53 -72 -51 38 4 95 47 120 81 120 161 0 46 7 72 36 129 19 39 39 71 43 71 11 0 30 -45 37 -89 8 -48 -10 -84 -73 -145 -26 -25 -43 -46 -37 -46 6 0 39 29 73 65 70 72 66 55 45 194 -7 51 14 163 30 158 21 -7 56 -82 56 -120 0 -24 -9 -52 -26 -77 -14 -21 -24 -45 -22 -52 3 -7 21 21 41 61 39 78 40 105 6 149 -24 32 -32 74 -24 133 l7 51 25 -24 c37 -35 56 -76 49 -112 -17 -99 -17 -103 3 -51 26 67 25 98 -3 132 -12 15 -28 38 -35 50 -13 25 -15 123 -3 123 14 0 60 -54 71 -82 6 -17 7 -38 0 -60 -12 -43 -12 -55 2 -41 5 5 13 35 16 66 5 52 4 57 -24 84 -17 15 -36 38 -42 50 -12 25 -15 93 -3 93 4 0 22 -13 40 -29 28 -26 32 -37 33 -83 1 -45 3 -49 9 -23 15 59 11 75 -30 118 -42 43 -54 70 -48 106 3 21 4 20 41 -9 31 -27 37 -38 38 -73 1 -41 1 -41 10 -12 12 42 3 64 -42 105 -24 22 -42 47 -45 68 -8 40 1 40 48 2 26 -21 38 -40 40 -63 2 -17 5 3 5 47 1 60 -3 86 -18 110 -16 27 -17 38 -8 64 14 41 23 40 43 -3z m-1621 -77 c11 -14 17 -37 15 -52 l-3 -27 -33 28 c-23 20 -35 40 -39 68 l-6 40 23 -16 c14 -9 33 -27 43 -41z m1707 45 c0 -33 -25 -83 -50 -101 l-30 -23 0 37 c0 27 7 43 31 65 30 28 49 37 49 22z m-139 -42 c17 -18 29 -40 29 -55 0 -26 -1 -26 -28 -12 -36 18 -49 34 -57 69 -10 37 17 36 56 -2z m-1587 -77 c14 -15 26 -29 27 -33 1 -3 2 -20 4 -37 l3 -32 -33 20 c-31 17 -55 60 -55 94 0 22 25 16 54 -12z m156 16 c0 -27 -31 -79 -59 -99 l-31 -22 0 33 c0 37 12 56 50 82 28 19 40 20 40 6z m1570 -24 c-10 -43 -14 -51 -50 -76 l-30 -21 0 36 c0 27 8 44 29 66 41 41 61 39 51 -5z m-1390 17 c0 -11 -81 -56 -88 -49 -7 7 -5 9 38 35 37 22 50 26 50 14z m1110 -33 c0 -13 -17 -13 -25 0 -4 6 -16 5 -34 -5 -16 -8 -31 -11 -35 -8 -4 4 8 15 26 24 33 17 68 11 68 -11z m-1110 -52 c0 -5 -19 -8 -42 -7 -48 3 -60 7 -54 17 6 11 96 1 96 -10z m1090 13 c0 -5 -16 -11 -35 -13 -24 -3 -35 0 -35 9 0 8 13 13 35 13 19 0 35 -4 35 -9z m-1405 -64 c8 -12 15 -36 15 -54 l0 -34 -29 16 c-41 21 -61 53 -61 98 l0 38 30 -21 c16 -12 36 -31 45 -43z m1405 24 c0 -5 -16 -11 -35 -13 -34 -4 -43 1 -28 15 10 10 63 8 63 -2z m-1198 -69 c-10 -21 -3 -112 8 -112 5 0 10 4 12 9 2 5 17 12 34 15 28 6 32 4 38 -20 5 -18 3 -30 -6 -35 -18 -12 -58 -11 -58 1 0 6 11 10 25 10 16 0 25 6 25 15 0 20 -34 19 -54 -1 -18 -17 -20 -30 -8 -38 5 -3 9 -22 10 -42 1 -20 6 -41 11 -48 5 -6 12 -29 15 -51 4 -21 11 -42 16 -45 5 -3 14 -18 20 -34 9 -25 12 -27 23 -14 16 20 74 57 64 41 -5 -7 -1 -23 7 -35 10 -14 16 -17 16 -8 0 9 5 8 15 -6 21 -27 18 -39 -9 -52 -14 -6 -30 -21 -37 -34 -12 -23 -12 -22 22 3 49 37 57 40 63 30 4 -5 -9 -19 -28 -31 -22 -13 -34 -28 -33 -40 2 -28 9 -25 29 10 19 34 42 38 70 13 19 -17 24 -43 8 -43 -5 0 -10 7 -10 15 0 21 -27 30 -45 15 -17 -14 -19 -29 -6 -49 8 -12 12 -13 25 -1 21 17 33 5 16 -15 -8 -10 -22 -14 -34 -11 -20 4 -20 4 2 -11 12 -8 22 -25 22 -36 0 -21 0 -21 -16 1 -8 12 -20 20 -25 17 -21 -14 -48 9 -68 56 -13 29 -32 54 -45 61 -18 7 -28 26 -40 68 -9 32 -23 63 -30 69 -8 7 -17 39 -21 71 -4 33 -11 58 -15 55 -11 -7 -22 39 -14 59 3 9 -1 35 -10 57 -10 25 -14 53 -11 70 4 15 1 37 -5 49 -6 11 -8 30 -4 42 l7 22 18 -23 c12 -15 16 -28 11 -39z m596 23 c7 -14 12 -36 13 -48 0 -21 1 -21 11 3 l10 25 10 -25 c11 -29 5 -104 -13 -143 -16 -35 -32 -35 -18 0 7 19 7 29 0 31 -6 2 -11 19 -11 37 0 19 -4 36 -8 39 -15 9 -31 -62 -21 -96 12 -42 6 -45 -20 -12 -26 34 -27 78 -1 127 11 20 20 48 20 62 0 32 14 32 28 0z m602 5 c0 -5 -16 -10 -36 -10 -21 0 -33 4 -29 10 3 6 19 10 36 10 16 0 29 -4 29 -10z m-1145 -40 c3 -5 -1 -10 -9 -10 -9 0 -16 -4 -16 -10 0 -5 9 -10 20 -10 13 0 20 7 20 20 0 11 5 20 10 20 12 0 14 -47 3 -53 -5 -2 -20 -7 -34 -10 -24 -6 -26 -4 -27 28 -1 34 18 49 33 25z m365 -5 c0 -8 -7 -15 -15 -15 -8 0 -15 -4 -15 -8 0 -5 14 -7 30 -4 17 2 30 9 30 15 0 8 3 8 11 0 17 -17 0 -35 -27 -29 -13 4 -24 2 -24 -3 0 -6 -8 -8 -17 -5 -13 4 -11 0 5 -12 15 -11 22 -27 22 -50 0 -37 14 -51 34 -35 10 9 15 7 19 -8 10 -38 -9 -47 -49 -25 -36 21 -37 21 -55 3 -11 -11 -19 -31 -19 -46 0 -15 -10 -37 -22 -50 -19 -20 -20 -25 -8 -33 8 -5 23 -7 33 -4 12 4 17 0 17 -14 0 -46 -61 -28 -90 27 -10 20 -10 25 3 33 16 9 15 23 -6 66 -9 19 -7 31 13 66 12 24 20 48 16 55 -13 21 -23 11 -30 -31 -7 -41 -28 -67 -55 -68 -10 0 -11 3 -2 13 6 8 8 16 5 20 -3 3 4 10 15 17 14 7 21 21 21 41 0 33 22 48 45 29 20 -17 19 -49 -4 -84 -23 -34 -18 -51 10 -36 15 9 19 22 19 70 0 41 -4 60 -12 61 -10 0 -10 2 0 6 6 2 12 13 12 23 0 22 13 28 58 29 22 1 32 -4 32 -14z m1090 -20 c0 -43 -27 -93 -59 -109 -41 -21 -41 -21 -41 21 0 29 8 43 40 75 48 45 60 47 60 13z m-1015 -25 c9 -15 -5 -52 -18 -47 -6 2 -19 -6 -29 -17 -16 -19 -17 -19 -18 -3 0 19 38 77 51 77 4 0 11 -5 14 -10z m690 -49 c0 -35 -30 -51 -52 -27 -17 17 -17 18 3 12 14 -4 26 -1 35 10 13 15 11 17 -19 12 -17 -2 -32 -1 -32 4 0 4 -7 8 -16 8 -8 0 -13 4 -10 8 3 5 24 6 48 3 37 -5 43 -9 43 -30z m-670 -97 c-18 -13 -20 -47 -3 -77 13 -24 14 -33 23 -189 3 -60 3 -108 0 -108 -6 0 -37 18 -100 59 -71 47 -134 131 -97 131 16 0 62 45 62 62 0 4 8 8 18 8 29 0 55 25 58 56 2 16 7 44 13 63 6 19 8 38 5 42 -3 5 -2 14 2 20 4 7 12 -2 21 -22 12 -30 12 -35 -2 -45z m-406 30 c-7 -8 -7 -14 0 -18 6 -4 8 -13 4 -21 -3 -8 0 -15 6 -15 24 0 9 -29 -20 -39 -38 -13 -39 -13 -39 -2 0 5 11 12 25 15 36 9 32 30 -5 23 -36 -8 -41 10 -5 19 36 9 31 28 -5 21 -38 -8 -40 8 -2 21 39 13 54 11 41 -4z m1063 10 c11 -11 -9 -59 -25 -62 -9 -2 -17 1 -17 7 0 6 5 11 10 11 6 0 10 7 10 15 0 23 -27 18 -35 -7 l-8 -23 -4 24 c-3 13 1 27 9 32 15 10 52 12 60 3z m-236 -38 c11 -11 11 -17 2 -22 -6 -4 -14 -2 -16 4 -2 7 -11 12 -20 12 -15 0 -15 2 -2 10 19 12 19 13 36 -4z m-536 -6 c12 -8 13 -13 2 -30 -11 -18 -10 -20 8 -20 11 0 20 5 20 10 0 15 20 12 26 -5 9 -23 -19 -44 -52 -38 -53 8 -58 12 -44 28 7 8 9 22 6 31 -11 29 6 42 34 24z m260 -28 c0 -15 -6 -34 -12 -40 -7 -7 -13 -29 -14 -50 -1 -20 -7 -82 -13 -137 -6 -55 -11 -103 -11 -107 0 -5 -6 -8 -14 -8 -10 0 -17 15 -20 43 -9 78 -18 172 -20 209 -1 21 -7 43 -14 50 -6 6 -12 25 -12 40 0 28 0 28 65 28 65 0 65 0 65 -28z m64 -47 c12 -9 17 -21 13 -36 -8 -29 8 -66 32 -74 11 -3 33 0 48 8 18 10 36 12 50 6 20 -7 21 -11 10 -31 -12 -22 -74 -88 -113 -118 -25 -20 -144 -81 -144 -74 0 3 6 12 14 20 8 8 17 44 20 86 3 40 8 98 11 128 8 99 19 115 59 85z m-576 -26 c2 -19 -4 -28 -24 -38 -31 -14 -32 -14 -40 26 -5 27 -3 32 17 36 36 6 44 3 47 -24z m982 -19 c0 -5 -22 -10 -50 -10 -27 0 -50 5 -50 10 0 6 23 10 50 10 28 0 50 -4 50 -10z m-154 -226 c7 11 17 16 21 13 3 -4 -3 -16 -15 -28 l-22 -20 -34 28 c-19 15 -32 31 -29 36 3 5 19 -4 35 -20 29 -27 30 -27 44 -9z m-96 -13 c0 -5 -9 -11 -20 -14 -24 -6 -25 -20 -4 -42 24 -24 49 -15 47 18 -2 31 5 34 22 11 9 -14 7 -21 -12 -42 -20 -22 -28 -24 -51 -16 -30 11 -40 41 -22 73 11 21 40 29 40 12z m-99 -112 c17 -34 18 -43 7 -50 -19 -13 -49 -7 -62 13 -16 27 1 33 22 8 12 -15 21 -19 26 -12 4 6 -1 20 -11 30 -21 21 -29 52 -14 52 6 0 20 -19 32 -41z m-66 -48 c9 -19 11 -32 5 -36 -6 -3 -14 5 -20 19 -5 14 -15 26 -21 26 -11 0 -9 -16 6 -52 12 -30 -9 -20 -28 13 -10 18 -16 32 -15 33 2 0 12 6 23 13 29 17 33 16 50 -16z m-101 -7 c15 -6 23 -54 10 -66 -3 -3 -17 -3 -32 1 -28 8 -37 31 -14 39 7 2 11 -1 10 -6 -2 -6 2 -11 7 -12 6 0 11 6 13 14 2 11 -4 16 -17 16 -12 0 -21 5 -21 10 0 11 20 13 44 4z"/> <path d="M1493 1788 c2 -7 14 -13 27 -13 13 0 25 6 28 13 2 8 -7 12 -28 12 -21 0 -30 -4 -27 -12z"/> </g> </svg> 